HIERARCHY
ROOT root
{
	OFFSET 0.000000 0.000000 0.000000
	CHANNELS 6 Xposition Yposition Zposition Zrotation Yrotation Xrotation
	JOINT lhip
	{
		OFFSET 0.058581 -0.082280 -0.017664
		CHANNELS 3 Zrotation Yrotation Xrotation
		JOINT lknee
		{
			OFFSET 0.043451 -0.386469 0.008037
			CHANNELS 3 Zrotation Yrotation Xrotation
			JOINT lankle
			{
				OFFSET -0.014790 -0.426874 -0.037428
				CHANNELS 3 Zrotation Yrotation Xrotation
				JOINT ltoe
				{
					OFFSET 0.041054 -0.060286 0.122042
					CHANNELS 3 Zrotation Yrotation Xrotation
					End Site
					{
						OFFSET 0.000000 0.000000 0.000000
					}
				}
			}
		}
	}
	JOINT rhip
	{
		OFFSET -0.060310 -0.090513 -0.013543
		CHANNELS 3 Zrotation Yrotation Xrotation
		JOINT rknee
		{
			OFFSET -0.043257 -0.383688 -0.004843
			CHANNELS 3 Zrotation Yrotation Xrotation
			JOINT rankle
			{
				OFFSET 0.019056 -0.420046 -0.034562
				CHANNELS 3 Zrotation Yrotation Xrotation
				JOINT rtoe
				{
					OFFSET -0.034840 -0.062106 0.130323
					CHANNELS 3 Zrotation Yrotation Xrotation
					End Site
					{
						OFFSET 0.000000 0.000000 0.000000
					}
				}
			}
		}
	}
	JOINT lowerback
	{
		OFFSET 0.004439 0.124404 -0.038385
		CHANNELS 3 Zrotation Yrotation Xrotation
		JOINT upperback
		{
			OFFSET 0.004488 0.137956 0.026820
			CHANNELS 3 Zrotation Yrotation Xrotation
			JOINT chest
			{
				OFFSET -0.002265 0.056032 0.002855
				CHANNELS 3 Zrotation Yrotation Xrotation
				JOINT lowerneck
				{
					OFFSET -0.013390 0.211636 -0.033468
					CHANNELS 3 Zrotation Yrotation Xrotation
					JOINT upperneck
					{
						OFFSET 0.010113 0.088937 0.050410
						CHANNELS 3 Zrotation Yrotation Xrotation
						End Site
						{
							OFFSET 0.000000 0.000000 0.000000
						}
					}
				}
				JOINT lclavicle
				{
					OFFSET 0.071702 0.114000 -0.018898
					CHANNELS 3 Zrotation Yrotation Xrotation
					JOINT lshoulder
					{
						OFFSET 0.122921 0.045205 -0.019046
						CHANNELS 3 Zrotation Yrotation Xrotation
						JOINT lelbow
						{
							OFFSET 0.255332 -0.015649 -0.022946
							CHANNELS 3 Zrotation Yrotation Xrotation
							JOINT lwrist
							{
								OFFSET 0.265709 0.012698 -0.007375
								CHANNELS 3 Zrotation Yrotation Xrotation
								End Site
								{
									OFFSET 0.000000 0.000000 0.000000
								}
							}
						}
					}
				}
				JOINT rclavicle
				{
					OFFSET -0.082954 0.112472 -0.023707
					CHANNELS 3 Zrotation Yrotation Xrotation
					JOINT rshoulder
					{
						OFFSET -0.113228 0.046853 -0.008472
						CHANNELS 3 Zrotation Yrotation Xrotation
						JOINT relbow
						{
							OFFSET -0.260127 -0.014369 -0.031269
							CHANNELS 3 Zrotation Yrotation Xrotation
							JOINT rwrist
							{
								OFFSET -0.269108 0.006794 -0.006027
								CHANNELS 3 Zrotation Yrotation Xrotation
								End Site
								{
									OFFSET 0.000000 0.000000 0.000000
								}
							}
						}
					}
				}
			}
		}
	}
}
MOTION
Frames: 8
Frame Time: 0.033333
0.998710 0.858306 0.876448 -167.401904 -0.763694 78.350443 -1.070567 -6.967949 -10.040887 -13.469348 -11.152890 55.488425 3.940720 21.158243 -39.282723 0.000000 -0.000000 0.000000 2.126807 3.985003 -19.358050 3.062883 0.575089 65.387167 8.655479 -21.335674 -33.391913 0.000000 -0.000000 0.000000 -0.925305 2.447961 16.606935 2.861543 1.312384 -0.404483 -2.803555 -1.762558 9.072930 6.889243 3.073735 -23.665729 6.851239 -17.228552 -4.188900 -26.596830 5.143258 -2.999580 -22.527544 5.659708 9.363666 -5.935989 -27.681413 -4.023977 -0.622146 -9.204107 -5.123517 34.332953 4.265369 -14.092577 41.990161 0.133787 20.341563 -7.807413 22.564394 -10.117979 2.091666 -0.389796 10.701632 
1.004797 0.846931 0.854851 -162.598144 -1.466217 75.528926 -1.572934 -12.245169 -14.577241 -14.567166 -6.534652 64.019174 1.638223 18.337969 -35.409527 0.000000 -0.000000 0.000000 0.036901 4.731702 -22.282279 -0.649849 -3.509114 74.729609 7.556379 -18.369854 -28.952199 0.000000 -0.000000 0.000000 -1.346723 3.943580 22.997002 2.112188 0.650253 0.071350 -2.734062 -1.370118 7.916469 7.483798 1.169837 -25.467005 8.454479 -19.146402 -7.612310 -27.506360 0.226243 -1.020652 -29.112061 4.283583 10.042764 -2.684663 -27.679498 -5.905346 -2.801491 -9.726823 -5.735610 32.160087 7.125808 -11.813287 46.034712 0.283513 19.865402 -7.685106 23.461498 -7.382021 0.170691 -0.092192 9.425154 
1.011874 0.841040 0.844265 -158.699704 -0.878757 75.123108 -0.378506 -11.058763 -16.146275 -15.017606 -7.398405 64.970329 2.472500 16.679534 -38.480137 0.000000 -0.000000 0.000000 0.780192 3.547162 -21.921162 -1.426145 -3.764976 75.238118 7.480454 -18.922043 -32.006064 0.000000 -0.000000 0.000000 -1.539237 4.456903 23.283543 1.982408 0.286365 2.328403 -2.358222 -1.499653 7.340751 7.878203 -0.987828 -25.846234 9.496197 -19.360556 -8.004213 -28.240950 -2.724902 0.531582 -35.166924 2.384737 10.251447 -0.017893 -28.563347 -5.032984 0.884933 -9.437061 -8.221011 30.767892 9.529833 -9.942729 48.726004 0.641432 18.755164 -8.218260 24.517484 -5.198844 1.388907 0.080431 8.573247 
1.017604 0.835505 0.844152 -155.895104 -0.576639 76.593963 0.265787 -10.635043 -17.932022 -14.907090 -8.761503 63.803761 3.617997 16.315428 -41.166760 0.000000 -0.000000 0.000000 2.496752 4.589761 -19.985034 -2.576939 -4.639612 69.592072 6.901930 -23.954808 -39.489276 0.000000 -0.000000 0.000000 -2.269876 3.705428 22.627453 1.484685 -0.105655 0.236929 -2.184731 -1.543346 8.230054 8.177947 -2.396527 -24.847557 9.357972 -19.348179 -6.602911 -30.094155 -1.644451 -0.145802 -38.748957 -0.274156 10.616287 1.368961 -28.385144 -5.262222 5.808600 -8.436764 -9.385805 31.865675 8.975331 -10.081225 49.974972 2.122408 19.240107 -8.046897 23.411914 -4.352768 -0.803527 -0.123602 9.391195 
1.023394 0.824739 0.855503 -154.379960 -0.957000 77.416586 0.065471 -13.387745 -19.909289 -13.971879 -8.358569 62.240693 2.202111 15.317173 -37.133835 0.000000 -0.000000 0.000000 2.450048 5.832320 -20.508549 -3.727171 -4.830075 67.083614 7.285288 -23.411824 -37.776881 0.000000 -0.000000 0.000000 -2.690687 3.715945 24.266684 0.785319 -0.187794 -1.520120 -2.068483 -1.569392 7.771029 8.016226 -4.419587 -24.670537 10.127895 -19.076972 -7.445509 -31.356668 -2.262777 -0.380015 -42.083693 -2.213783 11.661756 3.905161 -27.601731 -8.295804 9.012942 -7.317537 -11.265895 31.153345 9.138396 -9.958901 51.981481 2.898201 19.533184 -8.278146 22.865620 -6.368309 -4.625432 0.085869 6.917182 
1.027272 0.813999 0.872767 -154.407205 -0.476627 77.472673 0.214354 -13.815848 -18.479580 -12.566168 -9.309045 57.257608 1.754079 16.156192 -35.342884 0.000000 -0.000000 0.000000 2.746212 5.691192 -19.277985 -3.374416 -5.071356 62.739518 6.767009 -22.533697 -35.808128 0.000000 -0.000000 0.000000 -1.409995 3.754744 25.752419 -0.090513 0.342428 -1.432668 -2.034322 -1.267868 6.685930 7.158064 -6.993081 -24.832499 10.970313 -18.743071 -8.256809 -31.539393 -4.698870 0.191348 -46.023132 -3.985315 11.992181 5.951368 -25.463396 -11.207374 11.844904 -6.503620 -13.152986 29.468572 11.348261 -8.351853 52.395779 3.369695 18.562339 -8.597727 23.350426 -6.870818 -3.816550 0.583574 4.733861 
1.029778 0.805326 0.890552 -154.780379 -0.261229 78.736014 0.075543 -13.272140 -17.240616 -10.875456 -11.204680 52.384899 2.950913 16.362320 -35.007351 0.000000 -0.000000 0.000000 2.383460 4.521315 -18.881067 -2.297697 -4.728502 57.866633 6.189536 -21.281198 -33.606091 0.000000 -0.000000 0.000000 -1.094123 3.654053 23.990934 -0.460301 0.325621 -0.521538 -1.732900 -0.919837 6.023848 6.469746 -8.665983 -24.229601 11.100296 -18.088651 -7.830352 -31.846507 -6.912015 0.217447 -48.553971 -5.438915 12.108441 7.218784 -22.850920 -11.647551 9.948803 -5.455814 -12.547636 28.167147 13.585462 -7.384182 51.499497 4.422978 17.877486 -8.637289 23.208225 -6.001882 -0.398839 -0.046849 4.299477 
1.033296 0.797098 0.909666 -156.365253 0.007144 79.543842 0.925851 -13.147334 -15.807862 -9.781097 -11.713363 47.318966 1.874505 15.683781 -34.469361 0.000000 -0.000000 0.000000 2.564838 5.343426 -17.813375 -1.729028 -4.774228 52.679114 7.260715 -19.823882 -32.478458 0.000000 -0.000000 0.000000 -1.201926 3.823908 23.652701 -0.613017 0.377171 -0.993252 -1.374833 -0.697814 5.372463 6.053437 -9.239311 -23.199991 10.951642 -18.107737 -7.504194 -31.506968 -7.839000 -0.160323 -50.822557 -6.722256 12.928916 7.928730 -21.274220 -9.618893 10.464816 -5.912287 -9.797918 27.045225 14.478661 -7.552298 51.693789 6.364221 17.208729 -9.648037 22.839295 -5.665480 -0.007309 -0.404444 4.780420 
